<mxfile host="app.diagrams.net" modified="2021-10-02T22:45:03.896Z" agent="5.0 (Windows NT 10.0; Win64; x64) AppleWebKit/537.36 (KHTML, like Gecko) Chrome/94.0.4606.61 Safari/537.36" etag="yxzr4jS-ijbJUE2s4RAp" version="15.4.1" type="github">
  <diagram id="AEQYp4O1t-IQ-jwBRmct" name="Page-1">
    <mxGraphModel dx="1038" dy="579" grid="1" gridSize="10" guides="1" tooltips="1" connect="1" arrows="1" fold="1" page="1" pageScale="1" pageWidth="850" pageHeight="1100" math="0" shadow="0">
      <root>
        <mxCell id="0" />
        <mxCell id="1" parent="0" />
        <mxCell id="IQzbp1bgOjGsrtWS4UyJ-2" value="" style="endArrow=classic;html=1;fontColor=#FF0000;rounded=0;jumpStyle=none;startArrow=none;" parent="1" edge="1">
          <mxGeometry width="50" height="50" relative="1" as="geometry">
            <mxPoint x="270" y="360" as="sourcePoint" />
            <mxPoint x="500" y="360" as="targetPoint" />
          </mxGeometry>
        </mxCell>
        <mxCell id="IQzbp1bgOjGsrtWS4UyJ-3" value="" style="shape=image;html=1;verticalAlign=top;verticalLabelPosition=bottom;labelBackgroundColor=#ffffff;imageAspect=0;aspect=fixed;image=https://cdn1.iconfinder.com/data/icons/silk2/cross.png;sketch=0;fontColor=#FF0000;" parent="1" vertex="1">
          <mxGeometry x="160" y="300" width="16" height="16" as="geometry" />
        </mxCell>
        <mxCell id="IQzbp1bgOjGsrtWS4UyJ-5" value="" style="shape=image;html=1;verticalAlign=top;verticalLabelPosition=bottom;labelBackgroundColor=#ffffff;imageAspect=0;aspect=fixed;image=https://cdn1.iconfinder.com/data/icons/silk2/cross.png;sketch=0;fontColor=#FF0000;" parent="1" vertex="1">
          <mxGeometry x="190" y="300" width="16" height="16" as="geometry" />
        </mxCell>
        <mxCell id="IQzbp1bgOjGsrtWS4UyJ-6" value="" style="shape=image;html=1;verticalAlign=top;verticalLabelPosition=bottom;labelBackgroundColor=#ffffff;imageAspect=0;aspect=fixed;image=https://cdn1.iconfinder.com/data/icons/silk2/cross.png;sketch=0;fontColor=#FF0000;" parent="1" vertex="1">
          <mxGeometry x="220" y="300" width="16" height="16" as="geometry" />
        </mxCell>
        <mxCell id="IQzbp1bgOjGsrtWS4UyJ-7" value="" style="shape=image;html=1;verticalAlign=top;verticalLabelPosition=bottom;labelBackgroundColor=#ffffff;imageAspect=0;aspect=fixed;image=https://cdn1.iconfinder.com/data/icons/silk2/cross.png;sketch=0;fontColor=#FF0000;" parent="1" vertex="1">
          <mxGeometry x="250" y="300" width="16" height="16" as="geometry" />
        </mxCell>
        <mxCell id="IQzbp1bgOjGsrtWS4UyJ-8" value="" style="shape=image;html=1;verticalAlign=top;verticalLabelPosition=bottom;labelBackgroundColor=#ffffff;imageAspect=0;aspect=fixed;image=https://cdn3.iconfinder.com/data/icons/flat-actions-icons-9/512/Tick_Mark-128.png;sketch=0;fontColor=#FF0000;imageBackground=#FFFF00;" parent="1" vertex="1">
          <mxGeometry x="283" y="298" width="20" height="20" as="geometry" />
        </mxCell>
        <mxCell id="IQzbp1bgOjGsrtWS4UyJ-9" value="" style="shape=image;html=1;verticalAlign=top;verticalLabelPosition=bottom;labelBackgroundColor=#ffffff;imageAspect=0;aspect=fixed;image=https://cdn3.iconfinder.com/data/icons/flat-actions-icons-9/512/Tick_Mark-128.png;sketch=0;fontColor=#FF0000;" parent="1" vertex="1">
          <mxGeometry x="313" y="298" width="20" height="20" as="geometry" />
        </mxCell>
        <mxCell id="IQzbp1bgOjGsrtWS4UyJ-10" value="" style="shape=image;html=1;verticalAlign=top;verticalLabelPosition=bottom;labelBackgroundColor=#ffffff;imageAspect=0;aspect=fixed;image=https://cdn3.iconfinder.com/data/icons/flat-actions-icons-9/512/Tick_Mark-128.png;sketch=0;fontColor=#FF0000;" parent="1" vertex="1">
          <mxGeometry x="343" y="298" width="20" height="20" as="geometry" />
        </mxCell>
        <mxCell id="IQzbp1bgOjGsrtWS4UyJ-11" value="" style="shape=image;html=1;verticalAlign=top;verticalLabelPosition=bottom;labelBackgroundColor=#ffffff;imageAspect=0;aspect=fixed;image=https://cdn3.iconfinder.com/data/icons/flat-actions-icons-9/512/Tick_Mark-128.png;sketch=0;fontColor=#FF0000;" parent="1" vertex="1">
          <mxGeometry x="373" y="298" width="20" height="20" as="geometry" />
        </mxCell>
        <mxCell id="IQzbp1bgOjGsrtWS4UyJ-13" value="" style="endArrow=none;dashed=1;html=1;dashPattern=1 3;strokeWidth=2;fontColor=#FF0000;" parent="1" edge="1">
          <mxGeometry width="50" height="50" relative="1" as="geometry">
            <mxPoint x="410" y="307.5" as="sourcePoint" />
            <mxPoint x="470" y="307.5" as="targetPoint" />
          </mxGeometry>
        </mxCell>
        <mxCell id="IQzbp1bgOjGsrtWS4UyJ-15" value="" style="endArrow=none;dashed=1;html=1;dashPattern=1 3;strokeWidth=2;fontColor=#FF0000;" parent="1" edge="1">
          <mxGeometry width="50" height="50" relative="1" as="geometry">
            <mxPoint x="90" y="307.5" as="sourcePoint" />
            <mxPoint x="150" y="307.5" as="targetPoint" />
          </mxGeometry>
        </mxCell>
        <mxCell id="IQzbp1bgOjGsrtWS4UyJ-16" value="&lt;font color=&quot;#000000&quot; style=&quot;font-size: 20px&quot;&gt;startValue&lt;/font&gt;" style="text;html=1;strokeColor=none;fillColor=none;align=center;verticalAlign=middle;whiteSpace=wrap;rounded=0;sketch=0;fontColor=#FF0000;" parent="1" vertex="1">
          <mxGeometry x="470" y="370" width="110" height="20" as="geometry" />
        </mxCell>
        <mxCell id="IQzbp1bgOjGsrtWS4UyJ-18" value="" style="endArrow=none;html=1;fontColor=#FF0000;" parent="1" edge="1">
          <mxGeometry width="50" height="50" relative="1" as="geometry">
            <mxPoint x="60" y="360" as="sourcePoint" />
            <mxPoint x="60" y="350" as="targetPoint" />
          </mxGeometry>
        </mxCell>
        <mxCell id="IQzbp1bgOjGsrtWS4UyJ-19" value="&lt;font color=&quot;#000000&quot; style=&quot;font-size: 20px&quot;&gt;0&lt;/font&gt;" style="text;html=1;strokeColor=none;fillColor=none;align=center;verticalAlign=middle;whiteSpace=wrap;rounded=0;sketch=0;fontColor=#FF0000;" parent="1" vertex="1">
          <mxGeometry x="40" y="370" width="40" height="20" as="geometry" />
        </mxCell>
        <mxCell id="IQzbp1bgOjGsrtWS4UyJ-24" value="&lt;font style=&quot;font-size: 20px&quot;&gt;&lt;font color=&quot;#000000&quot;&gt;the minimum&lt;/font&gt;&lt;br&gt;&lt;font color=&quot;#00cc66&quot;&gt;valid&lt;/font&gt;&lt;/font&gt;&lt;font color=&quot;#000000&quot; style=&quot;font-size: 20px&quot;&gt; startValue&lt;/font&gt;" style="text;html=1;strokeColor=none;fillColor=none;align=center;verticalAlign=middle;whiteSpace=wrap;rounded=0;sketch=0;fontColor=#FF0000;" parent="1" vertex="1">
          <mxGeometry x="179" y="390" width="232" height="20" as="geometry" />
        </mxCell>
        <mxCell id="ytEIKpZikr7nponMzxIn-1" value="&lt;font style=&quot;font-size: 20px&quot;&gt;&lt;br&gt;invalid&lt;/font&gt;" style="text;html=1;strokeColor=none;fillColor=none;align=center;verticalAlign=middle;whiteSpace=wrap;rounded=0;sketch=0;fontColor=#FF0000;" vertex="1" parent="1">
          <mxGeometry x="83" y="310" width="230" height="20" as="geometry" />
        </mxCell>
        <mxCell id="ytEIKpZikr7nponMzxIn-3" value="&lt;font style=&quot;font-size: 20px&quot;&gt;&lt;br&gt;valid&lt;/font&gt;" style="text;html=1;strokeColor=none;fillColor=none;align=center;verticalAlign=middle;whiteSpace=wrap;rounded=0;sketch=0;fontColor=#00CC66;" vertex="1" parent="1">
          <mxGeometry x="230" y="310" width="230" height="20" as="geometry" />
        </mxCell>
        <mxCell id="ytEIKpZikr7nponMzxIn-6" value="" style="shape=singleArrow;direction=north;whiteSpace=wrap;html=1;labelBorderColor=#FF0000;fontSize=20;fontColor=#00CC66;align=center;labelBackgroundColor=#00CC66;" vertex="1" parent="1">
          <mxGeometry x="285" y="330" width="20" height="40" as="geometry" />
        </mxCell>
        <mxCell id="ytEIKpZikr7nponMzxIn-9" value="" style="endArrow=none;html=1;fontColor=#FF0000;rounded=0;jumpStyle=none;" edge="1" parent="1">
          <mxGeometry width="50" height="50" relative="1" as="geometry">
            <mxPoint x="50" y="360" as="sourcePoint" />
            <mxPoint x="280" y="360" as="targetPoint" />
          </mxGeometry>
        </mxCell>
      </root>
    </mxGraphModel>
  </diagram>
</mxfile>
